<?xml version="1.0" encoding="UTF-8" standalone="no"?>
<!-- Created with Inkscape (http://www.inkscape.org/) -->
<svg
   xmlns:dc="http://purl.org/dc/elements/1.1/"
   xmlns:cc="http://creativecommons.org/ns#"
   xmlns:rdf="http://www.w3.org/1999/02/22-rdf-syntax-ns#"
   xmlns:svg="http://www.w3.org/2000/svg"
   xmlns="http://www.w3.org/2000/svg"
   xmlns:sodipodi="http://sodipodi.sourceforge.net/DTD/sodipodi-0.dtd"
   xmlns:inkscape="http://www.inkscape.org/namespaces/inkscape"
   id="svg2"
   sodipodi:version="0.32"
   inkscape:version="0.46"
   width="198"
   height="97"
   xml:space="preserve"
   sodipodi:docname="École polytechnique fédérale de Lausanne.svg"
   inkscape:output_extension="org.inkscape.output.svg.inkscape"
   version="1.0"><metadata
     id="metadata7"><rdf:RDF><cc:Work
         rdf:about=""><dc:format>image/svg+xml</dc:format><dc:type
           rdf:resource="http://purl.org/dc/dcmitype/StillImage" /></cc:Work></rdf:RDF></metadata><defs
     id="defs5"><inkscape:perspective
       sodipodi:type="inkscape:persp3d"
       inkscape:vp_x="0 : 526.18109 : 1"
       inkscape:vp_y="0 : 1000 : 0"
       inkscape:vp_z="744.09448 : 526.18109 : 1"
       inkscape:persp3d-origin="372.04724 : 350.78739 : 1"
       id="perspective9" /><clipPath
       clipPathUnits="userSpaceOnUse"
       id="clipPath19"><path
         d="M 11.0117,11.8555 L 1574.8,11.8555 L 1574.8,761.699 L 11.0117,761.699 L 11.0117,11.8555 z"
         id="path21" /></clipPath></defs><sodipodi:namedview
     inkscape:window-height="712"
     inkscape:window-width="1024"
     inkscape:pageshadow="2"
     inkscape:pageopacity="0.0"
     guidetolerance="10.0"
     gridtolerance="10.0"
     objecttolerance="10.0"
     borderopacity="1.0"
     bordercolor="#666666"
     pagecolor="#ffffff"
     id="base"
     showgrid="false"
     inkscape:zoom="2.8202532"
     inkscape:cx="98.75"
     inkscape:cy="48.125"
     inkscape:window-x="-4"
     inkscape:window-y="-4"
     inkscape:current-layer="g11" /><g
     id="g11"
     inkscape:groupmode="layer"
     inkscape:label="EPF Lausanne"
     transform="matrix(1.25,0,0,-1.25,0,96.25)"><g
       id="g13"
       transform="scale(0.1,0.1)"><g
         id="g15"><g
           id="g17"
           clip-path="url(#clipPath19)"><path
             d="M 622.781,761.672 C 622.781,761.672 565.004,660.812 562.828,565.945 L 616.246,565.945 L 616.246,520.168 L 560.637,520.168 C 560.637,520.168 556.273,425.293 622.781,319.551 L 568.809,319.551 C 568.809,319.551 437.98,499.98 568.809,761.672 L 622.781,761.672"
             style="fill:#231f20;fill-opacity:1;fill-rule:nonzero;stroke:none"
             id="path23" /><path
             d="M 517.387,319.688 C 517.387,319.688 386.547,499.98 517.387,761.672 L 14.2148,761.672 L 14.2148,319.688 L 517.387,319.688"
             style="fill:#ed1c24;fill-opacity:1;fill-rule:nonzero;stroke:none"
             id="path25" /><path
             d="M 825.059,319.473 L 875.957,319.473 L 875.957,520.066 L 930.273,520.066 L 930.273,565.871 L 876.816,565.871 C 879.004,660.723 936.797,761.582 936.797,761.582 L 882.852,761.582 C 841.348,678.617 826.172,603.809 824.805,540.328 L 825.059,319.473"
             style="fill:#231f20;fill-opacity:1;fill-rule:nonzero;stroke:none"
             id="path27" /><path
             d="M 1010.68,520.066 C 1010.68,520.066 1006.29,425.215 1072.81,319.453 L 1018.83,319.453 C 1018.83,319.453 957.805,403.613 960.82,540.348 L 960.82,761.672 L 1010.41,761.672 L 1010.68,520.066"
             style="fill:#231f20;fill-opacity:1;fill-rule:nonzero;stroke:none"
             id="path29" /><path
             d="M 1124.69,319.453 C 1058.18,425.215 1062.54,520.066 1062.54,520.066 L 1062.27,761.672 L 1573.65,761.672 L 1573.24,319.492 L 1124.69,319.453"
             style="fill:#ed1c24;fill-opacity:1;fill-rule:nonzero;stroke:none"
             id="path31" /><path
             d="M 656.133,319.473 L 706.2853,319.473 L 706.2853,761.672 L 656.133,761.672 L 656.133,319.473 z"
             style="fill:#231f20;fill-opacity:1;fill-rule:nonzero;stroke:none"
             id="path33" /><path
             d="M 773.887,761.672 L 720.469,761.672 C 720.469,761.672 804.434,651.543 720.469,540.328 L 773.887,540.328 C 773.887,540.328 852.988,644.879 773.887,761.672"
             style="fill:#231f20;fill-opacity:1;fill-rule:nonzero;stroke:none"
             id="path35" /><path
             d="M 55.3984,259.688 C 55.9922,258.613 55.3984,258.281 54.9258,258.281 C 54.5781,258.281 53.4023,258.496 51.3945,258.281 C 45.625,257.676 37.4023,254.988 33.5078,253.34 C 32.6875,253.008 31.9727,252.754 31.7422,252.754 C 31.5,252.754 31.1523,253.008 31.1523,253.477 C 31.1523,253.816 31.3906,254.043 31.9727,254.387 C 36.2148,257.305 47.168,263.938 47.9883,264.395 C 49.9844,265.586 50.6914,265.938 51.2852,265.938 C 51.6328,265.938 51.875,265.703 52.457,264.875 C 53.2773,263.691 54.1016,262.051 55.3984,259.688 z M 21.2734,209.531 C 21.2734,227.891 21.2734,231.211 21.0312,234.973 C 20.7969,238.965 19.8555,240.859 15.9727,241.68 C 15.0195,241.914 13.0273,242.051 11.9688,242.051 C 11.5,242.051 11.0195,242.266 11.0195,242.754 C 11.0195,243.457 11.6094,243.711 12.9102,243.711 C 18.207,243.711 25.6211,243.34 26.2109,243.34 C 27.0312,243.34 50.4609,243.34 53.1758,243.457 C 55.3984,243.574 57.2891,243.828 58.2188,244.055 C 58.8086,244.172 59.2852,244.621 59.8672,244.621 C 60.2266,244.621 60.3516,244.172 60.3516,243.574 C 60.3516,242.754 59.7617,241.34 59.4023,238.027 C 59.2852,236.855 59.0547,231.68 58.8086,230.266 C 58.6992,229.668 58.4609,228.945 57.9883,228.945 C 57.2891,228.945 57.0625,229.551 57.0625,230.488 C 57.0625,231.316 56.9336,233.34 56.3398,234.746 C 55.5195,236.621 54.3477,238.027 47.9883,238.711 C 45.9805,238.965 33.1602,239.082 31.8594,239.082 C 31.3906,239.082 31.1523,238.711 31.1523,237.891 L 31.1523,205.449 C 31.1523,204.609 31.2734,204.258 31.8594,204.258 C 33.3906,204.258 47.8672,204.258 50.5742,204.492 C 53.4023,204.727 55.0547,204.98 56.1094,206.133 C 56.9336,207.051 57.3984,207.637 57.8828,207.637 C 58.2188,207.637 58.4609,207.402 58.4609,206.699 C 58.4609,206.055 57.8828,204.023 57.5234,200.117 C 57.2891,197.734 57.0625,193.438 57.0625,192.617 C 57.0625,191.641 57.0625,190.352 56.2305,190.352 C 55.6406,190.352 55.3984,190.82 55.3984,191.426 C 55.3984,192.617 55.3984,193.789 54.9258,195.312 C 54.4648,196.934 53.4023,198.926 48.8125,199.395 C 45.625,199.766 33.9805,200 31.9727,200 C 31.3906,200 31.1523,199.648 31.1523,199.18 L 31.1523,188.809 C 31.1523,184.844 31.0352,171.172 31.1523,168.672 C 31.5,160.566 33.2773,159.023 44.8047,159.023 C 47.8672,159.023 53.0469,159.023 56.1094,160.332 C 59.1719,161.621 60.582,164.004 61.4062,168.789 C 61.6406,170.098 61.875,170.566 62.4609,170.566 C 63.168,170.566 63.168,169.629 63.168,168.789 C 63.168,167.871 62.2305,159.863 61.6406,157.422 C 60.8164,154.336 59.8672,154.336 55.2812,154.336 C 37.5117,154.336 29.6172,155.059 26.2109,155.059 C 25.6211,155.059 18.207,154.707 14.6836,154.707 C 13.375,154.707 12.793,154.941 12.793,155.645 C 12.793,155.996 13.0273,156.367 13.7344,156.367 C 14.7891,156.367 16.207,156.602 17.2617,156.836 C 19.625,157.305 20.2031,159.863 20.6797,163.281 C 21.2734,168.203 21.2734,177.52 21.2734,188.809 L 21.2734,209.531"
             style="fill:#231f20;fill-opacity:1;fill-rule:nonzero;stroke:none"
             id="path37" /><path
             d="M 93.8906,165.762 C 82.4766,176.035 79.6484,189.395 79.6484,200.586 C 79.6484,208.477 82.3555,222.266 92.832,232.754 C 99.8945,239.785 110.609,245.332 128.727,245.332 C 133.438,245.332 140.027,244.973 145.797,243.918 C 150.273,243.105 154.043,242.383 157.812,242.168 C 159.102,242.051 159.332,241.562 159.332,240.859 C 159.332,239.902 158.984,238.496 158.75,234.27 C 158.516,230.383 158.516,223.926 158.398,222.148 C 158.27,220.371 158.043,219.648 157.336,219.648 C 156.516,219.648 156.387,220.488 156.387,222.148 C 156.387,226.738 154.504,231.562 151.445,234.16 C 147.324,237.656 138.27,240.859 127.898,240.859 C 112.258,240.859 104.949,236.262 100.84,232.285 C 92.2422,224.043 90.2344,213.555 90.2344,201.543 C 90.2344,179.043 107.551,158.438 132.734,158.438 C 141.562,158.438 148.508,159.492 153.215,164.355 C 155.684,166.953 157.219,172.109 157.566,174.238 C 157.812,175.547 158.043,176.035 158.75,176.035 C 159.332,176.035 159.57,175.195 159.57,174.238 C 159.57,173.398 158.152,163.184 156.973,159.141 C 156.277,156.953 156.047,156.719 153.918,155.781 C 149.219,153.887 140.266,153.047 132.734,153.047 C 115.078,153.047 103.191,157.422 93.8906,165.762"
             style="fill:#231f20;fill-opacity:1;fill-rule:nonzero;stroke:none"
             id="path39" /><path
             d="M 185.586,202.598 C 185.586,228.359 200.305,241.34 219.957,241.34 C 238.555,241.34 255.742,226.133 255.742,197.871 C 255.742,163.633 233.848,157.52 223.254,157.52 C 202.062,157.52 185.586,175.195 185.586,202.598 z M 174.395,199.277 C 174.395,178.105 187.82,153.047 220.066,153.047 C 248.438,153.047 267.043,174.844 267.043,201.191 C 267.043,228.594 247.266,245.332 220.781,245.332 C 188.301,245.332 174.395,218.359 174.395,199.277"
             style="fill:#231f20;fill-opacity:1;fill-rule:nonzero;stroke:none"
             id="path41" /><path
             d="M 305.41,188.574 C 305.41,171.289 305.879,163.75 308,161.621 C 309.887,159.746 312.949,158.906 322.125,158.906 C 328.363,158.906 333.535,159.023 336.363,162.461 C 337.895,164.355 339.078,167.305 339.426,169.512 C 339.543,170.449 339.773,171.035 340.492,171.035 C 341.078,171.035 341.188,170.566 341.188,169.258 C 341.188,167.988 340.367,160.918 339.426,157.52 C 338.598,154.805 338.258,154.336 332.012,154.336 C 315.059,154.336 307.289,155.059 300.461,155.059 C 299.402,155.059 292.461,154.707 288.926,154.707 C 287.637,154.707 287.047,154.941 287.047,155.645 C 287.047,155.996 287.273,156.367 287.992,156.367 C 289.055,156.367 290.465,156.602 291.523,156.836 C 293.879,157.305 294.453,159.863 294.934,163.281 C 295.52,168.203 295.52,177.52 295.52,188.809 L 295.52,209.531 C 295.52,227.891 295.52,231.211 295.289,234.973 C 295.043,238.965 294.105,240.859 290.23,241.68 C 289.281,241.914 287.273,242.051 286.223,242.051 C 285.754,242.051 285.277,242.266 285.277,242.754 C 285.277,243.457 285.867,243.711 287.168,243.711 C 292.461,243.711 299.867,243.34 300.461,243.34 C 301.055,243.34 309.645,243.711 313.184,243.711 C 314.469,243.711 315.059,243.457 315.059,242.754 C 315.059,242.266 314.594,242.051 314.121,242.051 C 313.293,242.051 311.641,241.914 310.234,241.68 C 306.816,241.094 305.879,239.082 305.645,234.973 C 305.41,231.211 305.41,227.891 305.41,209.531 L 305.41,188.574"
             style="fill:#231f20;fill-opacity:1;fill-rule:nonzero;stroke:none"
             id="path43" /><path
             d="M 365.199,209.531 C 365.199,227.891 365.199,231.211 364.965,234.973 C 364.73,238.965 363.789,240.859 359.906,241.68 C 358.965,241.914 356.973,242.051 355.902,242.051 C 355.43,242.051 354.965,242.266 354.965,242.754 C 354.965,243.457 355.551,243.711 356.848,243.711 C 362.145,243.711 369.555,243.34 370.141,243.34 C 370.969,243.34 394.398,243.34 397.105,243.457 C 399.34,243.574 401.227,243.828 402.164,244.055 C 402.754,244.172 403.219,244.621 403.812,244.621 C 404.164,244.621 404.273,244.172 404.273,243.574 C 404.273,242.754 403.695,241.34 403.344,238.027 C 403.219,236.855 402.988,231.68 402.754,230.266 C 402.629,229.668 402.395,228.945 401.93,228.945 C 401.227,228.945 400.992,229.551 400.992,230.488 C 400.992,231.316 400.875,233.34 400.281,234.746 C 399.449,236.621 398.281,238.027 391.918,238.711 C 389.918,238.965 377.094,239.082 375.801,239.082 C 375.328,239.082 375.082,238.711 375.082,237.891 L 375.082,205.449 C 375.082,204.609 375.211,204.258 375.801,204.258 C 377.32,204.258 391.812,204.258 394.508,204.492 C 397.34,204.727 398.988,204.98 400.039,206.133 C 400.875,207.051 401.344,207.637 401.801,207.637 C 402.164,207.637 402.395,207.402 402.395,206.699 C 402.395,206.055 401.801,204.023 401.469,200.117 C 401.227,197.734 400.992,193.438 400.992,192.617 C 400.992,191.641 400.992,190.352 400.168,190.352 C 399.574,190.352 399.34,190.82 399.34,191.426 C 399.34,192.617 399.34,193.789 398.871,195.312 C 398.395,196.934 397.34,198.926 392.746,199.395 C 389.566,199.766 377.914,200 375.918,200 C 375.328,200 375.082,199.648 375.082,199.18 L 375.082,188.809 C 375.082,184.844 374.977,171.172 375.082,168.672 C 375.445,160.566 377.211,159.023 388.746,159.023 C 391.812,159.023 396.977,159.023 400.039,160.332 C 403.113,161.621 404.516,164.004 405.344,168.789 C 405.586,170.098 405.816,170.566 406.406,170.566 C 407.105,170.566 407.105,169.629 407.105,168.789 C 407.105,167.871 406.168,159.863 405.586,157.422 C 404.762,154.336 403.812,154.336 399.215,154.336 C 381.449,154.336 373.562,155.059 370.141,155.059 C 369.555,155.059 362.145,154.707 358.617,154.707 C 357.32,154.707 356.73,154.941 356.73,155.645 C 356.73,155.996 356.973,156.367 357.672,156.367 C 358.73,156.367 360.152,156.602 361.199,156.836 C 363.547,157.305 364.141,159.863 364.613,163.281 C 365.199,168.203 365.199,177.52 365.199,188.809 L 365.199,209.531"
             style="fill:#231f20;fill-opacity:1;fill-rule:nonzero;stroke:none"
             id="path45" /><path
             d="M 475.258,209.531 C 475.258,227.891 475.258,231.211 475.023,234.973 C 474.789,238.965 473.844,240.859 469.957,241.68 C 469.027,241.914 467.02,242.051 465.969,242.051 C 465.492,242.051 465.016,242.266 465.016,242.754 C 465.016,243.457 465.609,243.711 466.898,243.711 C 472.195,243.711 479.258,243.34 480.207,243.34 C 482.781,243.34 489.613,243.711 495.027,243.711 C 509.758,243.711 515.043,238.711 516.926,236.973 C 519.52,234.512 522.812,229.199 522.812,222.988 C 522.812,206.25 510.574,194.961 493.855,194.961 C 493.266,194.961 491.977,194.961 491.387,195.098 C 490.797,195.098 490.09,195.312 490.09,195.918 C 490.09,196.816 490.797,196.934 493.266,196.934 C 504.68,196.934 513.633,205.332 513.633,216.152 C 513.633,220.02 513.281,227.891 507.043,234.27 C 500.797,240.613 493.625,240.145 490.914,240.145 C 488.918,240.145 486.91,239.902 485.855,239.434 C 485.145,239.199 484.906,238.379 484.906,237.207 L 484.906,188.809 C 484.906,177.52 484.906,168.203 485.5,163.281 C 485.855,159.863 486.555,157.305 490.09,156.836 C 491.738,156.602 494.32,156.367 495.391,156.367 C 496.094,156.367 496.328,155.996 496.328,155.645 C 496.328,155.059 495.738,154.707 494.449,154.707 C 487.969,154.707 480.559,155.059 479.965,155.059 C 479.613,155.059 472.195,154.707 468.672,154.707 C 467.375,154.707 466.781,154.941 466.781,155.645 C 466.781,155.996 467.02,156.367 467.719,156.367 C 468.785,156.367 470.191,156.602 471.254,156.836 C 473.609,157.305 474.199,159.863 474.668,163.281 C 475.258,168.203 475.258,177.52 475.258,188.809 L 475.258,209.531"
             style="fill:#231f20;fill-opacity:1;fill-rule:nonzero;stroke:none"
             id="path47" /><path
             d="M 548.594,202.598 C 548.594,228.359 563.312,241.34 582.965,241.34 C 601.566,241.34 618.746,226.133 618.746,197.871 C 618.746,163.633 596.852,157.52 586.262,157.52 C 565.062,157.52 548.594,175.195 548.594,202.598 z M 537.402,199.277 C 537.402,178.105 550.82,153.047 583.07,153.047 C 611.449,153.047 630.051,174.844 630.051,201.191 C 630.051,228.594 610.266,245.332 583.789,245.332 C 551.305,245.332 537.402,218.359 537.402,199.277"
             style="fill:#231f20;fill-opacity:1;fill-rule:nonzero;stroke:none"
             id="path49" /><path
             d="M 666.062,188.574 C 666.062,171.289 666.531,163.75 668.645,161.621 C 670.527,159.746 673.594,158.906 682.773,158.906 C 689.023,158.906 694.188,159.023 697.012,162.461 C 698.555,164.355 699.727,167.305 700.066,169.512 C 700.195,170.449 700.43,171.035 701.145,171.035 C 701.715,171.035 701.84,170.566 701.84,169.258 C 701.84,167.988 701.023,160.918 700.066,157.52 C 699.242,154.805 698.91,154.336 692.656,154.336 C 675.715,154.336 667.938,155.059 661.113,155.059 C 660.062,155.059 653.113,154.707 649.582,154.707 C 648.285,154.707 647.699,154.941 647.699,155.645 C 647.699,155.996 647.934,156.367 648.633,156.367 C 649.707,156.367 651.105,156.602 652.18,156.836 C 654.531,157.305 655.121,159.863 655.582,163.281 C 656.172,168.203 656.172,177.52 656.172,188.809 L 656.172,209.531 C 656.172,227.891 656.172,231.211 655.938,234.973 C 655.699,238.965 654.766,240.859 650.875,241.68 C 649.941,241.914 647.934,242.051 646.875,242.051 C 646.406,242.051 645.922,242.266 645.922,242.754 C 645.922,243.457 646.516,243.711 647.816,243.711 C 653.113,243.711 660.523,243.34 661.113,243.34 C 661.711,243.34 670.297,243.711 673.828,243.711 C 675.121,243.711 675.715,243.457 675.715,242.754 C 675.715,242.266 675.234,242.051 674.773,242.051 C 673.945,242.051 672.301,241.914 670.879,241.68 C 667.473,241.094 666.531,239.082 666.301,234.973 C 666.062,231.211 666.062,227.891 666.062,209.531 L 666.062,188.574"
             style="fill:#231f20;fill-opacity:1;fill-rule:nonzero;stroke:none"
             id="path51" /><path
             d="M 736.57,185.195 C 736.57,191.543 735.398,194.121 733.855,197.52 C 733.043,199.395 717.266,225.32 713.152,231.438 C 710.195,235.793 707.258,238.711 705.137,240.145 C 703.379,241.34 701.145,242.051 700.066,242.051 C 699.48,242.051 698.91,242.266 698.91,242.871 C 698.91,243.34 699.371,243.711 700.43,243.711 C 702.668,243.711 711.5,243.34 712.082,243.34 C 712.91,243.34 717.383,243.711 721.965,243.711 C 723.277,243.711 723.508,243.34 723.508,242.871 C 723.508,242.383 722.793,242.266 721.73,241.797 C 720.805,241.34 720.215,240.613 720.215,239.688 C 720.215,238.242 720.805,236.855 721.73,235.078 C 723.617,231.68 741.277,201.309 743.391,197.871 C 745.625,202.832 760.574,228.594 762.93,232.5 C 764.473,234.973 764.922,236.973 764.922,238.496 C 764.922,240.145 764.473,241.445 763.047,241.797 C 762.004,242.168 761.289,242.383 761.289,242.988 C 761.289,243.457 762.004,243.711 763.176,243.711 C 766.23,243.711 769.988,243.34 770.938,243.34 C 771.648,243.34 780.117,243.711 782.344,243.711 C 783.176,243.711 783.895,243.457 783.895,242.988 C 783.895,242.383 783.301,242.051 782.344,242.051 C 781.062,242.051 778.828,241.562 776.934,240.371 C 774.582,238.965 773.293,237.539 770.703,234.402 C 766.824,229.668 750.332,202.012 748.215,196.934 C 746.457,192.715 746.457,189.043 746.457,185.195 L 746.457,175.059 C 746.457,173.184 746.457,168.203 746.809,163.281 C 747.051,159.863 748.098,157.305 751.641,156.836 C 753.281,156.602 755.871,156.367 756.934,156.367 C 757.629,156.367 757.871,155.996 757.871,155.645 C 757.871,155.059 757.297,154.707 755.984,154.707 C 749.52,154.707 742.109,155.059 741.516,155.059 C 740.918,155.059 733.496,154.707 729.98,154.707 C 728.672,154.707 728.098,154.941 728.098,155.645 C 728.098,155.996 728.332,156.367 729.023,156.367 C 730.098,156.367 731.496,156.602 732.566,156.836 C 734.922,157.305 735.977,159.863 736.211,163.281 C 736.57,168.203 736.57,173.184 736.57,175.059 L 736.57,185.195"
             style="fill:#231f20;fill-opacity:1;fill-rule:nonzero;stroke:none"
             id="path53" /><path
             d="M 827.91,188.809 C 827.91,177.52 827.91,168.203 828.477,163.281 C 828.828,159.863 829.551,157.305 833.086,156.836 C 834.746,156.602 837.324,156.367 838.359,156.367 C 839.082,156.367 839.297,155.996 839.297,155.645 C 839.297,155.059 838.711,154.707 837.449,154.707 C 830.969,154.707 823.574,155.059 822.988,155.059 C 822.383,155.059 814.98,154.707 811.426,154.707 C 810.117,154.707 809.531,154.941 809.531,155.645 C 809.531,155.996 809.766,156.367 810.469,156.367 C 811.543,156.367 812.969,156.602 814.023,156.836 C 816.367,157.305 816.973,159.863 817.422,163.281 C 818.027,168.203 818.027,177.52 818.027,188.809 L 818.027,238.613 L 800.586,238.379 C 793.301,238.242 790.48,237.422 788.605,234.609 C 787.297,232.617 786.941,231.797 786.594,230.969 C 786.238,230.02 785.891,229.785 785.41,229.785 C 785.059,229.785 784.812,230.137 784.812,230.852 C 784.812,232.031 787.18,242.168 787.414,243.105 C 787.645,243.828 788.125,245.332 788.605,245.332 C 789.414,245.332 790.598,244.172 793.789,243.918 C 797.18,243.574 801.648,243.34 803.074,243.34 L 847.219,243.34 C 854.746,243.34 857.891,244.504 858.848,244.504 C 859.453,244.504 859.453,243.828 859.453,243.105 C 859.453,239.57 859.102,231.438 859.102,230.137 C 859.102,229.082 858.75,228.594 858.262,228.594 C 857.676,228.594 857.441,228.945 857.305,230.605 L 857.195,231.914 C 856.758,235.43 854.062,238.125 842.754,238.379 L 827.91,238.613 L 827.91,188.809"
             style="fill:#231f20;fill-opacity:1;fill-rule:nonzero;stroke:none"
             id="path55" /><path
             d="M 884.16,209.531 C 884.16,227.891 884.16,231.211 883.945,234.973 C 883.711,238.965 882.773,240.859 878.867,241.68 C 877.93,241.914 875.938,242.051 874.863,242.051 C 874.395,242.051 873.945,242.266 873.945,242.754 C 873.945,243.457 874.504,243.711 875.812,243.711 C 881.094,243.711 888.516,243.34 889.102,243.34 C 889.949,243.34 913.352,243.34 916.055,243.457 C 918.293,243.574 920.195,243.828 921.152,244.055 C 921.738,244.172 922.207,244.621 922.793,244.621 C 923.137,244.621 923.23,244.172 923.23,243.574 C 923.23,242.754 922.656,241.34 922.324,238.027 C 922.207,236.855 921.973,231.68 921.738,230.266 C 921.602,229.668 921.387,228.945 920.918,228.945 C 920.195,228.945 919.941,229.551 919.941,230.488 C 919.941,231.316 919.844,233.34 919.238,234.746 C 918.43,236.621 917.246,238.027 910.898,238.711 C 908.887,238.965 896.047,239.082 894.758,239.082 C 894.289,239.082 894.043,238.711 894.043,237.891 L 894.043,205.449 C 894.043,204.609 894.172,204.258 894.758,204.258 C 896.27,204.258 910.781,204.258 913.484,204.492 C 916.289,204.727 917.949,204.98 919.016,206.133 C 919.844,207.051 920.312,207.637 920.801,207.637 C 921.152,207.637 921.387,207.402 921.387,206.699 C 921.387,206.055 920.801,204.023 920.43,200.117 C 920.195,197.734 919.941,193.438 919.941,192.617 C 919.941,191.641 919.941,190.352 919.141,190.352 C 918.535,190.352 918.293,190.82 918.293,191.426 C 918.293,192.617 918.293,193.789 917.852,195.312 C 917.363,196.934 916.289,198.926 911.719,199.395 C 908.547,199.766 896.875,200 894.895,200 C 894.289,200 894.043,199.648 894.043,199.18 L 894.043,188.809 C 894.043,184.844 893.945,171.172 894.043,168.672 C 894.402,160.566 896.164,159.023 907.695,159.023 C 910.781,159.023 915.918,159.023 919.016,160.332 C 922.09,161.621 923.496,164.004 924.309,168.789 C 924.551,170.098 924.797,170.566 925.359,170.566 C 926.055,170.566 926.055,169.629 926.055,168.789 C 926.055,167.871 925.117,159.863 924.551,157.422 C 923.723,154.336 922.793,154.336 918.184,154.336 C 900.422,154.336 892.539,155.059 889.102,155.059 C 888.516,155.059 881.094,154.707 877.559,154.707 C 876.301,154.707 875.715,154.941 875.715,155.645 C 875.715,155.996 875.938,156.367 876.633,156.367 C 877.676,156.367 879.102,156.602 880.168,156.836 C 882.539,157.305 883.125,159.863 883.594,163.281 C 884.16,168.203 884.16,177.52 884.16,188.809 L 884.16,209.531"
             style="fill:#231f20;fill-opacity:1;fill-rule:nonzero;stroke:none"
             id="path57" /><path
             d="M 956.777,165.762 C 945.352,176.035 942.539,189.395 942.539,200.586 C 942.539,208.477 945.234,222.266 955.703,232.754 C 962.793,239.785 973.496,245.332 991.66,245.332 C 996.348,245.332 1002.91,244.973 1008.73,243.918 C 1013.14,243.105 1016.95,242.383 1020.72,242.168 C 1021.97,242.051 1022.23,241.562 1022.23,240.859 C 1022.23,239.902 1021.86,238.496 1021.66,234.27 C 1021.39,230.383 1021.39,223.926 1021.29,222.148 C 1021.19,220.371 1020.96,219.648 1020.27,219.648 C 1019.43,219.648 1019.32,220.488 1019.32,222.148 C 1019.32,226.738 1017.42,231.562 1014.36,234.16 C 1010.25,237.656 1001.19,240.859 990.84,240.859 C 975.156,240.859 967.871,236.262 963.723,232.285 C 955.117,224.043 953.145,213.555 953.145,201.543 C 953.145,179.043 970.469,158.438 995.625,158.438 C 1004.45,158.438 1011.41,159.492 1016.09,164.355 C 1018.61,166.953 1020.14,172.109 1020.49,174.238 C 1020.72,175.547 1020.96,176.035 1021.66,176.035 C 1022.23,176.035 1022.44,175.195 1022.44,174.238 C 1022.44,173.398 1021.07,163.184 1019.9,159.141 C 1019.2,156.953 1018.96,156.719 1016.82,155.781 C 1012.09,153.887 1003.14,153.047 995.625,153.047 C 977.969,153.047 966.074,157.422 956.777,165.762"
             style="fill:#231f20;fill-opacity:1;fill-rule:nonzero;stroke:none"
             id="path59" /><path
             d="M 1121.82,188.809 C 1121.82,177.52 1121.82,168.203 1122.4,163.281 C 1122.75,159.863 1123.48,157.305 1127.01,156.836 C 1128.63,156.602 1131.21,156.367 1132.29,156.367 C 1133.01,156.367 1133.22,155.996 1133.22,155.645 C 1133.22,155.059 1132.64,154.707 1131.35,154.707 C 1124.88,154.707 1117.48,155.059 1116.89,155.059 C 1116.31,155.059 1108.87,154.707 1105.33,154.707 C 1104.04,154.707 1103.46,154.941 1103.46,155.645 C 1103.46,155.996 1103.67,156.367 1104.39,156.367 C 1105.47,156.367 1106.89,156.602 1107.95,156.836 C 1110.27,157.305 1110.86,159.863 1111.33,163.281 C 1111.93,168.203 1111.93,177.52 1111.93,188.809 L 1111.93,201.191 C 1111.93,201.66 1111.56,201.895 1111.21,201.895 L 1061.29,201.895 C 1060.94,201.895 1060.61,201.777 1060.61,201.191 L 1060.61,188.809 C 1060.61,177.52 1060.61,168.203 1061.17,163.281 C 1061.52,159.863 1062.25,157.305 1065.8,156.836 C 1067.46,156.602 1070.02,156.367 1071.05,156.367 C 1071.78,156.367 1072.03,155.996 1072.03,155.645 C 1072.03,155.059 1071.43,154.707 1070.14,154.707 C 1063.67,154.707 1056.25,155.059 1055.66,155.059 C 1055.08,155.059 1047.68,154.707 1044.14,154.707 C 1042.83,154.707 1042.23,154.941 1042.23,155.645 C 1042.23,155.996 1042.48,156.367 1043.18,156.367 C 1044.24,156.367 1045.64,156.602 1046.72,156.836 C 1049.1,157.305 1049.69,159.863 1050.16,163.281 C 1050.72,168.203 1050.72,177.52 1050.72,188.809 L 1050.72,209.531 C 1050.72,227.891 1050.72,231.211 1050.49,234.973 C 1050.25,238.965 1049.34,240.859 1045.43,241.68 C 1044.49,241.914 1042.48,242.051 1041.41,242.051 C 1040.94,242.051 1040.49,242.266 1040.49,242.754 C 1040.49,243.457 1041.05,243.711 1042.34,243.711 C 1047.68,243.711 1055.08,243.34 1055.66,243.34 C 1056.25,243.34 1063.67,243.711 1067.21,243.711 C 1068.54,243.711 1069.1,243.457 1069.1,242.754 C 1069.1,242.266 1068.63,242.051 1068.16,242.051 C 1067.34,242.051 1066.62,241.914 1065.2,241.68 C 1062.01,241.094 1061.07,239.082 1060.82,234.973 C 1060.61,231.211 1060.61,227.891 1060.61,209.531 L 1060.61,207.051 C 1060.61,206.484 1060.94,206.387 1061.29,206.387 L 1111.21,206.387 C 1111.56,206.387 1111.93,206.484 1111.93,207.051 L 1111.93,209.531 C 1111.93,227.891 1111.93,231.211 1111.68,234.973 C 1111.45,238.965 1110.51,240.859 1106.66,241.68 C 1105.7,241.914 1103.67,242.051 1102.64,242.051 C 1102.15,242.051 1101.66,242.266 1101.66,242.754 C 1101.66,243.457 1102.27,243.711 1103.57,243.711 C 1108.87,243.711 1116.31,243.34 1116.89,243.34 C 1117.48,243.34 1124.88,243.711 1128.4,243.711 C 1129.69,243.711 1130.27,243.457 1130.27,242.754 C 1130.27,242.266 1129.8,242.051 1129.34,242.051 C 1128.52,242.051 1127.83,241.914 1126.45,241.68 C 1123.22,241.094 1122.27,239.082 1122.05,234.973 C 1121.82,231.211 1121.82,227.891 1121.82,209.531 L 1121.82,188.809"
             style="fill:#231f20;fill-opacity:1;fill-rule:nonzero;stroke:none"
             id="path61" /><path
             d="M 1166.91,170.703 C 1167.15,161.035 1168.28,157.988 1171.48,157.07 C 1173.73,156.465 1176.33,156.367 1177.36,156.367 C 1177.95,156.367 1178.28,156.133 1178.28,155.645 C 1178.28,154.941 1177.6,154.707 1176.21,154.707 C 1169.47,154.707 1164.8,155.059 1163.73,155.059 C 1162.66,155.059 1157.71,154.707 1152.42,154.707 C 1151.23,154.707 1150.53,154.805 1150.53,155.645 C 1150.53,156.133 1150.88,156.367 1151.46,156.367 C 1152.42,156.367 1154.55,156.465 1156.33,157.07 C 1159.24,157.871 1159.82,161.27 1159.82,171.992 L 1159.96,239.434 C 1159.96,244.055 1160.31,245.332 1161.25,245.332 C 1162.19,245.332 1164.22,242.754 1165.39,241.562 C 1167.15,239.57 1184.69,220.605 1202.81,201.191 C 1214.47,188.691 1227.29,174.375 1231.05,170.449 L 1229.75,230.266 C 1229.65,237.891 1228.79,240.508 1225.18,241.445 C 1223.07,241.914 1220.35,242.051 1219.39,242.051 C 1218.57,242.051 1218.44,242.383 1218.44,242.871 C 1218.44,243.574 1219.39,243.711 1220.8,243.711 C 1226.09,243.711 1231.76,243.34 1233.07,243.34 C 1234.38,243.34 1238.24,243.711 1243.07,243.711 C 1244.36,243.711 1245.18,243.574 1245.18,242.871 C 1245.18,242.383 1244.71,242.051 1243.91,242.051 C 1243.3,242.051 1242.48,242.051 1241.05,241.68 C 1237.17,240.859 1236.68,238.242 1236.68,231.211 L 1236.45,162.227 C 1236.45,154.453 1236.21,153.887 1235.39,153.887 C 1234.47,153.887 1233.09,155.176 1226.8,161.406 C 1225.53,162.598 1208.55,179.863 1196.11,193.301 C 1182.44,207.988 1169.12,222.852 1165.39,227.09 L 1166.91,170.703"
             style="fill:#231f20;fill-opacity:1;fill-rule:nonzero;stroke:none"
             id="path63" /><path
             d="M 1285.06,188.809 C 1285.06,177.52 1285.06,168.203 1285.66,163.281 C 1286.02,159.863 1286.72,157.305 1290.27,156.836 C 1291.91,156.602 1294.49,156.367 1295.55,156.367 C 1296.25,156.367 1296.48,155.996 1296.48,155.645 C 1296.48,155.059 1295.9,154.707 1294.61,154.707 C 1288.12,154.707 1280.72,155.059 1280.14,155.059 C 1279.55,155.059 1272.15,154.707 1268.59,154.707 C 1267.29,154.707 1266.7,154.941 1266.7,155.645 C 1266.7,155.996 1266.93,156.367 1267.64,156.367 C 1268.71,156.367 1270.14,156.602 1271.19,156.836 C 1273.54,157.305 1274.14,159.863 1274.59,163.281 C 1275.16,168.203 1275.16,177.52 1275.16,188.809 L 1275.16,209.531 C 1275.16,227.891 1275.16,231.211 1274.94,234.973 C 1274.73,238.965 1273.54,240.977 1270.96,241.562 C 1269.67,241.914 1268.11,242.051 1267.29,242.051 C 1266.82,242.051 1266.35,242.266 1266.35,242.754 C 1266.35,243.457 1266.93,243.711 1268.22,243.711 C 1272.15,243.711 1279.55,243.34 1280.14,243.34 C 1280.72,243.34 1288.12,243.711 1291.7,243.711 C 1292.97,243.711 1293.55,243.457 1293.55,242.754 C 1293.55,242.266 1293.07,242.051 1292.62,242.051 C 1291.8,242.051 1291.09,241.914 1289.69,241.68 C 1286.46,241.094 1285.53,239.082 1285.29,234.973 C 1285.06,231.211 1285.06,227.891 1285.06,209.531 L 1285.06,188.809"
             style="fill:#231f20;fill-opacity:1;fill-rule:nonzero;stroke:none"
             id="path65" /><path
             d="M 1324.73,202.598 C 1324.73,228.359 1339.47,241.34 1359.12,241.34 C 1377.71,241.34 1394.9,226.133 1394.9,197.871 C 1394.9,163.633 1372.99,157.52 1362.4,157.52 C 1341.21,157.52 1324.73,175.195 1324.73,202.598 z M 1397.85,146.113 C 1416.91,135.625 1432.07,130.312 1446.35,130.312 C 1463.77,130.312 1476.95,135.391 1483.65,138.438 C 1484.38,138.809 1484.61,139.141 1484.61,139.609 C 1484.61,139.961 1484.38,140.312 1483.89,140.312 C 1483.54,140.312 1482.95,140.078 1482.23,139.824 C 1474.14,136.582 1464.94,135.273 1459.04,135.273 C 1453.16,135.273 1435.29,135.879 1409.49,149.121 L 1385.35,161.621 C 1393.12,166.738 1406.21,180.469 1406.21,201.191 C 1406.21,228.477 1386.43,245.332 1359.96,245.332 C 1327.46,245.332 1313.55,218.359 1313.55,199.277 C 1313.55,178.105 1326.97,153.047 1359.61,153.047 C 1365.82,153.047 1373.83,154.805 1378.07,157.07 L 1397.85,146.113"
             style="fill:#231f20;fill-opacity:1;fill-rule:nonzero;stroke:none"
             id="path67" /><path
             d="M 1428.46,209.531 C 1428.46,227.891 1428.46,231.211 1428.22,234.973 C 1427.99,238.965 1427.05,240.859 1423.12,241.68 C 1422.19,241.914 1420.2,242.051 1419.14,242.051 C 1418.69,242.051 1418.2,242.266 1418.2,242.754 C 1418.2,243.457 1418.81,243.711 1420.08,243.711 C 1425.39,243.711 1432.56,243.34 1433.63,243.34 C 1434.69,243.34 1441.72,243.711 1445.27,243.711 C 1446.6,243.711 1447.17,243.457 1447.17,242.754 C 1447.17,242.266 1446.68,242.051 1446.25,242.051 C 1445.39,242.051 1444.69,241.914 1443.26,241.68 C 1440.08,241.223 1439.16,239.082 1438.93,234.973 C 1438.69,231.211 1438.69,227.891 1438.69,209.531 L 1438.69,193.066 C 1438.69,176.133 1442.44,168.789 1447.54,164.004 C 1453.28,158.555 1458.59,157.52 1465.29,157.52 C 1472.46,157.52 1479.51,160.918 1483.77,166.016 C 1489.18,172.695 1490.59,182.715 1490.59,194.844 L 1490.59,209.531 C 1490.59,227.891 1490.59,231.211 1490.35,234.973 C 1490.12,238.965 1489.18,240.859 1485.31,241.68 C 1484.38,241.914 1482.36,242.051 1481.29,242.051 C 1480.8,242.051 1480.35,242.266 1480.35,242.754 C 1480.35,243.457 1480.92,243.711 1482.23,243.711 C 1487.54,243.711 1494.02,243.34 1494.73,243.34 C 1495.55,243.34 1501.05,243.711 1504.63,243.711 C 1505.92,243.711 1506.48,243.457 1506.48,242.754 C 1506.48,242.266 1506.04,242.051 1505.57,242.051 C 1504.75,242.051 1504.02,242.051 1502.6,241.68 C 1499.39,241.094 1498.48,239.082 1498.24,234.973 C 1497.99,231.211 1497.99,227.891 1497.99,209.531 L 1497.99,196.934 C 1497.99,184.258 1496.6,170.098 1487.17,161.738 C 1478.71,154.219 1469.88,153.047 1462.91,153.047 C 1458.95,153.047 1447.05,153.516 1438.69,161.406 C 1432.91,166.953 1428.46,175.195 1428.46,192.363 L 1428.46,209.531"
             style="fill:#231f20;fill-opacity:1;fill-rule:nonzero;stroke:none"
             id="path69" /><path
             d="M 1532.97,209.531 C 1532.97,227.891 1532.97,231.211 1532.73,234.973 C 1532.5,238.965 1531.56,240.859 1527.66,241.68 C 1526.74,241.914 1524.75,242.051 1523.67,242.051 C 1523.2,242.051 1522.73,242.266 1522.73,242.754 C 1522.73,243.457 1523.32,243.711 1524.61,243.711 C 1529.9,243.711 1537.32,243.34 1537.91,243.34 C 1538.71,243.34 1562.17,243.34 1564.86,243.457 C 1567.09,243.574 1568.96,243.828 1569.92,244.055 C 1570.51,244.172 1571,244.621 1571.58,244.621 C 1571.95,244.621 1572.05,244.172 1572.05,243.574 C 1572.05,242.754 1571.46,241.34 1571.09,238.027 C 1571,236.855 1570.74,231.68 1570.51,230.266 C 1570.39,229.668 1570.16,228.945 1569.69,228.945 C 1568.96,228.945 1568.73,229.551 1568.73,230.488 C 1568.73,231.316 1568.63,233.34 1568.03,234.746 C 1567.23,236.621 1566.04,238.027 1559.69,238.711 C 1557.7,238.965 1544.86,239.082 1543.55,239.082 C 1543.11,239.082 1542.85,238.711 1542.85,237.891 L 1542.85,205.449 C 1542.85,204.609 1542.99,204.258 1543.55,204.258 C 1545.08,204.258 1559.55,204.258 1562.29,204.492 C 1565.1,204.727 1566.74,204.98 1567.77,206.133 C 1568.63,207.051 1569.08,207.637 1569.57,207.637 C 1569.92,207.637 1570.16,207.402 1570.16,206.699 C 1570.16,206.055 1569.57,204.023 1569.22,200.117 C 1568.96,197.734 1568.73,193.438 1568.73,192.617 C 1568.73,191.641 1568.73,190.352 1567.91,190.352 C 1567.34,190.352 1567.09,190.82 1567.09,191.426 C 1567.09,192.617 1567.09,193.789 1566.64,195.312 C 1566.15,196.934 1565.1,198.926 1560.51,199.395 C 1557.34,199.766 1545.68,200 1543.69,200 C 1543.11,200 1542.85,199.648 1542.85,199.18 L 1542.85,188.809 C 1542.85,184.844 1542.75,171.172 1542.85,168.672 C 1543.2,160.566 1545,159.023 1556.5,159.023 C 1559.55,159.023 1564.75,159.023 1567.77,160.332 C 1570.88,161.621 1572.3,164.004 1573.11,168.789 C 1573.36,170.098 1573.59,170.566 1574.16,170.566 C 1574.88,170.566 1574.88,169.629 1574.88,168.789 C 1574.88,167.871 1573.95,159.863 1573.36,157.422 C 1572.54,154.336 1571.58,154.336 1566.97,154.336 C 1549.18,154.336 1541.33,155.059 1537.91,155.059 C 1537.32,155.059 1529.9,154.707 1526.39,154.707 C 1525.1,154.707 1524.51,154.941 1524.51,155.645 C 1524.51,155.996 1524.75,156.367 1525.45,156.367 C 1526.5,156.367 1527.91,156.602 1528.93,156.836 C 1531.31,157.305 1531.89,159.863 1532.38,163.281 C 1532.97,168.203 1532.97,177.52 1532.97,188.809 L 1532.97,209.531"
             style="fill:#231f20;fill-opacity:1;fill-rule:nonzero;stroke:none"
             id="path71" /><path
             d="M 22.1445,68.3203 C 22.1445,86.6602 22.1445,89.9414 21.9102,93.7305 C 21.6758,97.7539 20.7383,99.5898 16.8516,100.41 C 15.9141,100.645 13.9102,100.762 12.8438,100.762 C 12.3789,100.762 11.9102,100.996 11.9102,101.465 C 11.9102,102.188 12.5,102.422 13.793,102.422 C 19.0859,102.422 26.5,102.051 27.0898,102.051 C 29.4414,102.051 53.3359,102.051 56.0508,102.188 C 58.2852,102.305 60.168,102.305 61.2227,102.656 C 61.9414,102.891 62.4062,103.359 62.8711,103.359 C 63.3555,103.359 63.5859,102.891 63.5859,102.305 C 63.5859,101.465 62.9922,100.059 62.6367,96.7969 C 62.5273,95.6055 62.2891,90.4102 62.0469,89.043 C 61.9414,88.457 61.6992,87.7344 61.1133,87.7344 C 60.5234,87.7344 60.293,88.3203 60.293,89.1602 C 60.293,90.0781 59.9375,92.0703 59.2305,93.5938 C 58.5195,95.1367 55.8047,97.2656 51.2266,97.3828 L 33.0898,97.7539 C 32.3945,97.7539 32.0312,97.3828 32.0312,96.4258 L 32.0312,63.9258 C 32.0312,63.2031 32.1562,62.8711 32.8555,62.8711 L 47.9297,62.9883 C 49.9258,62.9883 51.582,62.9883 53.2266,63.1055 C 56.0508,63.3398 57.582,63.6914 58.6328,65.2344 C 59.1094,65.8398 59.4648,66.4258 59.9375,66.4258 C 60.3984,66.4258 60.5234,66.0547 60.5234,65.4688 C 60.5234,64.7656 59.9375,62.7344 59.5742,58.9062 C 59.3477,56.543 59.1094,51.7969 59.1094,50.9766 C 59.1094,49.9609 59.1094,48.7695 58.2852,48.7695 C 57.6953,48.7695 57.4648,49.2383 57.4648,49.8242 C 57.3477,50.9766 57.2227,52.6172 56.7578,54.043 C 56.1602,55.7031 54.2852,57.832 50.6367,58.3008 C 47.6914,58.6523 34.8633,58.6523 32.8555,58.6523 C 32.2656,58.6523 32.0312,58.4375 32.0312,57.5977 L 32.0312,47.5781 C 32.0312,36.2891 32.0312,26.9922 32.6289,22.0312 C 32.9844,18.6328 33.6836,16.0352 37.2188,15.5664 C 38.8633,15.3125 41.4609,15.0781 42.5156,15.0781 C 43.2148,15.0781 43.4414,14.7266 43.4414,14.375 C 43.4414,13.7695 42.8672,13.4375 41.5664,13.4375 C 35.0977,13.4375 27.6875,13.7695 27.0898,13.7695 C 26.5,13.7695 19.0859,13.4375 15.5586,13.4375 C 14.2539,13.4375 13.6758,13.6523 13.6758,14.375 C 13.6758,14.7266 13.9102,15.0781 14.6133,15.0781 C 15.6758,15.0781 17.0859,15.3125 18.1523,15.5664 C 20.5,16.0352 21.0898,18.6328 21.5586,22.0312 C 22.1445,26.9922 22.1445,36.2891 22.1445,47.5781 L 22.1445,68.3203"
             style="fill:#231f20;fill-opacity:1;fill-rule:nonzero;stroke:none"
             id="path73" /><path
             d="M 125.969,118.457 C 126.543,117.402 125.969,117.031 125.488,117.031 C 125.145,117.031 123.969,117.285 121.965,117.031 C 116.191,116.445 107.961,113.73 104.07,112.07 C 103.254,111.719 102.539,111.484 102.305,111.484 C 102.074,111.484 101.719,111.719 101.719,112.188 C 101.719,112.539 101.949,112.793 102.539,113.145 C 106.785,116.094 117.734,122.676 118.555,123.145 C 120.551,124.336 121.262,124.688 121.848,124.688 C 122.195,124.688 122.434,124.453 123.02,123.613 C 123.844,122.441 124.668,120.781 125.969,118.457 z M 91.8242,68.3203 C 91.8242,86.6602 91.8242,89.9414 91.5938,93.7305 C 91.3633,97.7539 90.4219,99.5898 86.5391,100.41 C 85.5859,100.645 83.5938,100.762 82.5234,100.762 C 82.0625,100.762 81.5859,100.996 81.5859,101.465 C 81.5859,102.188 82.1797,102.422 83.4766,102.422 C 88.7734,102.422 96.1875,102.051 96.7773,102.051 C 97.5898,102.051 121.023,102.051 123.738,102.188 C 125.969,102.305 127.852,102.539 128.793,102.773 C 129.375,102.891 129.855,103.359 130.438,103.359 C 130.793,103.359 130.906,102.891 130.906,102.305 C 130.906,101.465 130.32,100.059 129.973,96.7969 C 129.855,95.6055 129.617,90.4102 129.375,89.043 C 129.258,88.457 129.023,87.7344 128.555,87.7344 C 127.852,87.7344 127.613,88.3203 127.613,89.2578 C 127.613,90.0781 127.5,92.0703 126.902,93.4766 C 126.086,95.3906 124.902,96.7969 118.555,97.5 C 116.547,97.7539 103.723,97.8711 102.422,97.8711 C 101.949,97.8711 101.719,97.5 101.719,96.6797 L 101.719,64.1797 C 101.719,63.3398 101.836,62.9883 102.422,62.9883 C 103.953,62.9883 118.43,62.9883 121.145,63.2031 C 123.969,63.457 125.613,63.6914 126.672,64.8633 C 127.5,65.8398 127.969,66.4258 128.438,66.4258 C 128.793,66.4258 129.023,66.1914 129.023,65.4688 C 129.023,64.7656 128.438,62.7344 128.086,58.9062 C 127.852,56.543 127.613,52.1484 127.613,51.3477 C 127.613,50.4102 127.613,49.1406 126.785,49.1406 C 126.211,49.1406 125.969,49.6094 125.969,50.1953 C 125.969,51.3477 125.969,52.5 125.488,54.043 C 125.027,55.7031 123.969,57.7148 119.375,58.1836 C 116.191,58.5352 104.547,58.7695 102.539,58.7695 C 101.949,58.7695 101.719,58.4375 101.719,57.9492 L 101.719,47.5781 C 101.719,43.5547 101.602,29.9414 101.719,27.4609 C 102.074,19.3359 103.84,17.8125 115.371,17.8125 C 118.43,17.8125 123.613,17.8125 126.672,19.1211 C 129.734,20.4102 131.152,22.7344 131.973,27.5781 C 132.207,28.8867 132.441,29.3555 133.027,29.3555 C 133.734,29.3555 133.734,28.3984 133.734,27.5781 C 133.734,26.6211 132.793,18.6328 132.207,16.1523 C 131.379,13.0859 130.438,13.0859 125.852,13.0859 C 108.074,13.0859 100.188,13.7695 96.7773,13.7695 C 96.1875,13.7695 88.7734,13.4375 85.2383,13.4375 C 83.9414,13.4375 83.3516,13.6523 83.3516,14.375 C 83.3516,14.7266 83.5938,15.0781 84.2969,15.0781 C 85.3516,15.0781 86.7695,15.3125 87.8203,15.5664 C 90.1758,16.0352 90.7695,18.6328 91.2461,22.0312 C 91.8242,26.9922 91.8242,36.2891 91.8242,47.5781 L 91.8242,68.3203"
             style="fill:#231f20;fill-opacity:1;fill-rule:nonzero;stroke:none"
             id="path75" /><path
             d="M 173.523,70.1953 C 173.523,79.2773 173.523,91.2305 173.645,95.2539 C 173.645,96.5625 173.984,97.1484 175.043,97.6172 C 175.996,98.0859 180.352,98.457 182.695,98.457 C 196.711,98.457 210.137,96.7969 221.188,85.1172 C 226.02,80.0586 232.488,70.4102 232.488,55.4688 C 232.488,44.6289 229.199,33.3203 223.074,27.3438 C 216.133,20.4102 206.008,16.3867 195.059,16.3867 C 181.172,16.3867 176.57,18.8672 175.043,21.0938 C 174.102,22.4023 173.867,27.0898 173.762,30.0586 C 173.645,32.2461 173.523,43.0859 173.523,55.5859 L 173.523,70.1953 z M 163.633,47.5781 C 163.633,36.2891 163.633,26.9922 163.035,22.0312 C 162.578,18.6328 161.98,16.0352 159.617,15.5664 C 158.562,15.3125 157.156,15.0781 156.094,15.0781 C 155.391,15.0781 155.156,14.7266 155.156,14.375 C 155.156,13.6523 155.742,13.4375 157.043,13.4375 C 160.566,13.4375 167.988,13.7695 168.574,13.7695 C 169.746,13.7695 184.578,12.3828 194.707,12.3828 C 214.719,12.3828 225.305,20.6445 230.383,25.918 C 236.969,32.8516 243.082,44.2773 243.082,59.1211 C 243.082,73.1055 237.551,82.8711 231.672,89.043 C 217.656,103.496 196.125,102.422 184.473,102.422 C 177.402,102.422 169.988,102.051 168.574,102.051 C 167.98,102.051 160.566,102.422 155.273,102.422 C 153.984,102.422 153.391,102.188 153.391,101.465 C 153.391,100.996 153.867,100.762 154.336,100.762 C 155.391,100.762 157.395,100.645 158.328,100.41 C 162.219,99.5898 163.152,97.7539 163.398,93.7305 C 163.633,89.9414 163.633,86.6602 163.633,68.3203 L 163.633,47.5781"
             style="fill:#231f20;fill-opacity:1;fill-rule:nonzero;stroke:none"
             id="path77" /><path
             d="M 300.996,118.457 C 301.586,117.402 300.996,117.031 300.527,117.031 C 300.172,117.031 299,117.285 296.992,117.031 C 291.23,116.445 282.984,113.73 279.102,112.07 C 278.277,111.719 277.566,111.484 277.34,111.484 C 277.105,111.484 276.75,111.719 276.75,112.188 C 276.75,112.539 276.977,112.793 277.566,113.145 C 281.809,116.094 292.75,122.676 293.574,123.145 C 295.574,124.336 296.289,124.688 296.875,124.688 C 297.227,124.688 297.465,124.453 298.047,123.613 C 298.871,122.441 299.695,120.781 300.996,118.457 z M 266.855,68.3203 C 266.855,86.6602 266.855,89.9414 266.621,93.7305 C 266.387,97.7539 265.438,99.5898 261.562,100.41 C 260.625,100.645 258.625,100.762 257.559,100.762 C 257.09,100.762 256.621,100.996 256.621,101.465 C 256.621,102.188 257.207,102.422 258.508,102.422 C 263.789,102.422 271.211,102.051 271.809,102.051 C 272.629,102.051 296.047,102.051 298.762,102.188 C 300.996,102.305 302.871,102.539 303.824,102.773 C 304.414,102.891 304.879,103.359 305.469,103.359 C 305.828,103.359 305.938,102.891 305.938,102.305 C 305.938,101.465 305.344,100.059 304.996,96.7969 C 304.879,95.6055 304.648,90.4102 304.414,89.043 C 304.285,88.457 304.059,87.7344 303.594,87.7344 C 302.871,87.7344 302.641,88.3203 302.641,89.2578 C 302.641,90.0781 302.523,92.0703 301.934,93.4766 C 301.113,95.3906 299.938,96.7969 293.574,97.5 C 291.578,97.7539 278.75,97.8711 277.449,97.8711 C 276.977,97.8711 276.75,97.5 276.75,96.6797 L 276.75,64.1797 C 276.75,63.3398 276.875,62.9883 277.449,62.9883 C 278.984,62.9883 293.469,62.9883 296.172,63.2031 C 299,63.457 300.645,63.6914 301.703,64.8633 C 302.523,65.8398 303,66.4258 303.469,66.4258 C 303.824,66.4258 304.059,66.1914 304.059,65.4688 C 304.059,64.7656 303.469,62.7344 303.113,58.9062 C 302.871,56.543 302.641,52.1484 302.641,51.3477 C 302.641,50.4102 302.641,49.1406 301.816,49.1406 C 301.23,49.1406 300.996,49.6094 300.996,50.1953 C 300.996,51.3477 300.996,52.5 300.527,54.043 C 300.055,55.7031 299,57.7148 294.398,58.1836 C 291.23,58.5352 279.574,58.7695 277.566,58.7695 C 276.977,58.7695 276.75,58.4375 276.75,57.9492 L 276.75,47.5781 C 276.75,43.5547 276.633,29.9414 276.75,27.4609 C 277.105,19.3359 278.867,17.8125 290.406,17.8125 C 293.469,17.8125 298.645,17.8125 301.703,19.1211 C 304.762,20.4102 306.168,22.7344 306.992,27.5781 C 307.23,28.8867 307.477,29.3555 308.059,29.3555 C 308.766,29.3555 308.766,28.3984 308.766,27.5781 C 308.766,26.6211 307.812,18.6328 307.23,16.1523 C 306.41,13.0859 305.469,13.0859 300.879,13.0859 C 283.102,13.0859 275.227,13.7695 271.809,13.7695 C 271.211,13.7695 263.789,13.4375 260.27,13.4375 C 258.965,13.4375 258.391,13.6523 258.391,14.375 C 258.391,14.7266 258.625,15.0781 259.324,15.0781 C 260.383,15.0781 261.797,15.3125 262.859,15.5664 C 265.203,16.0352 265.801,18.6328 266.27,22.0312 C 266.855,26.9922 266.855,36.2891 266.855,47.5781 L 266.855,68.3203"
             style="fill:#231f20;fill-opacity:1;fill-rule:nonzero;stroke:none"
             id="path79" /><path
             d="M 348.074,96.5625 C 348.074,97.2656 348.434,97.7539 349.023,97.9688 C 350.191,98.3398 353.375,98.6914 356.902,98.6914 C 369.508,98.6914 377.266,89.8242 377.266,75.1367 C 377.266,66.1914 374.203,59.8438 370.082,57.0117 C 367.379,55.0977 364.082,54.7656 361.262,54.7656 C 356.078,54.7656 350.668,55.5859 348.895,56.6406 C 348.305,57.0117 348.074,57.4609 348.074,58.0664 L 348.074,96.5625 z M 338.656,47.5781 C 338.656,36.2891 338.656,26.9922 338.07,22.0312 C 337.598,18.6328 337.012,16.0352 334.656,15.5664 C 333.605,15.3125 332.18,15.0781 331.125,15.0781 C 330.426,15.0781 330.188,14.7266 330.188,14.375 C 330.188,13.6523 330.777,13.4375 332.07,13.4375 C 335.602,13.4375 343.023,13.7695 343.137,13.7695 C 343.715,13.7695 351.137,13.4375 357.613,13.4375 C 358.906,13.4375 359.488,13.7695 359.488,14.375 C 359.488,14.7266 359.258,15.0781 358.559,15.0781 C 357.496,15.0781 354.906,15.3125 353.246,15.5664 C 349.727,16.0352 349.023,18.6328 348.668,22.0312 C 348.074,26.9922 348.074,36.2891 348.074,47.5781 L 348.074,50.4102 C 348.074,50.9766 348.305,51.3477 348.895,51.3477 L 363.375,51.1133 C 364.082,51.1133 364.438,50.8594 364.906,50.4102 C 367.27,47.3438 372.797,39.4727 377.738,32.9688 C 384.449,24.1406 388.574,18.3984 393.629,15.6641 C 396.688,14.0039 399.633,13.4375 406.227,13.4375 L 414.582,13.4375 C 416.703,13.4375 417.402,13.6523 417.402,14.375 C 417.402,14.7266 416.938,15.0781 416.344,15.0781 C 415.641,15.0781 413.988,15.0781 411.754,15.4492 C 408.816,15.918 403.754,17.2266 397.398,23.8867 C 390.574,31.2109 382.562,41.6797 372.906,54.043 C 383.508,63.8086 387.152,72.5 387.152,81.2305 C 387.152,89.375 381.977,95.1367 379.039,97.2656 C 372.797,101.699 364.906,102.422 357.496,102.422 C 353.84,102.422 344.902,102.051 343.598,102.051 C 343.023,102.051 335.602,102.422 330.305,102.422 C 329.008,102.422 328.422,102.188 328.422,101.465 C 328.422,100.996 328.883,100.762 329.359,100.762 C 330.426,100.762 332.422,100.645 333.363,100.41 C 337.258,99.5898 338.188,97.7539 338.418,93.7305 C 338.656,89.9414 338.656,86.6602 338.656,68.3203 L 338.656,47.5781"
             style="fill:#231f20;fill-opacity:1;fill-rule:nonzero;stroke:none"
             id="path81" /><path
             d="M 434.109,52.3828 C 433.773,52.3828 433.531,52.6172 433.773,53.2227 L 444.133,85.0195 C 444.711,86.7969 445.293,86.7969 445.883,85.0195 L 457.074,53.2227 C 457.191,52.7344 457.191,52.3828 456.598,52.3828 L 434.109,52.3828 z M 417.645,26.4062 C 415.523,20.5273 413.168,16.0352 407.754,15.3125 C 406.812,15.1953 405.156,15.0781 404.332,15.0781 C 403.754,15.0781 403.277,14.8438 403.277,14.375 C 403.277,13.6523 403.984,13.4375 405.52,13.4375 C 411.051,13.4375 417.52,13.7695 418.812,13.7695 C 420.117,13.7695 425.172,13.4375 428.004,13.4375 C 429.059,13.4375 429.766,13.6523 429.766,14.375 C 429.766,14.8438 429.414,15.0781 428.59,15.0781 L 427.414,15.0781 C 425.414,15.0781 422.934,16.1523 422.934,18.5156 C 422.934,20.6445 423.523,23.418 424.582,26.4062 L 431.641,47.2461 C 431.887,47.8125 432.234,48.1641 432.828,48.1641 L 458.129,48.1641 C 458.723,48.1641 458.957,47.9492 459.195,47.4805 L 470.141,18.5156 C 470.852,16.6211 470.141,15.5664 469.434,15.3125 C 468.961,15.1953 468.613,14.9609 468.613,14.4922 C 468.613,13.7695 469.898,13.7695 472.141,13.6523 C 480.266,13.4375 488.855,13.4375 490.621,13.4375 C 491.918,13.4375 492.973,13.6523 492.973,14.375 C 492.973,14.9609 492.512,15.0781 491.793,15.0781 C 490.621,15.0781 488.855,15.1953 487.086,15.7812 C 484.613,16.5039 481.207,18.3984 476.973,28.8867 C 469.797,46.7578 451.301,95.3906 449.535,99.8438 C 448.129,103.496 447.656,104.082 446.949,104.082 C 446.238,104.082 445.777,103.359 444.363,99.4922 L 417.645,26.4062"
             style="fill:#231f20;fill-opacity:1;fill-rule:nonzero;stroke:none"
             id="path83" /><path
             d="M 519.691,47.3438 C 519.691,30.0586 520.172,22.4805 522.281,20.4102 C 524.172,18.5156 527.23,17.6953 536.406,17.6953 C 542.645,17.6953 547.816,17.8125 550.648,21.2305 C 552.18,23.0664 553.359,26.0352 553.707,28.2812 C 553.824,29.2383 554.066,29.8242 554.773,29.8242 C 555.367,29.8242 555.473,29.3555 555.473,28.0469 C 555.473,26.7383 554.648,19.707 553.707,16.2695 C 552.895,13.5352 552.539,13.0859 546.301,13.0859 C 529.348,13.0859 521.57,13.7695 514.746,13.7695 C 513.691,13.7695 506.754,13.4375 503.219,13.4375 C 501.918,13.4375 501.328,13.6523 501.328,14.375 C 501.328,14.7266 501.566,15.0781 502.273,15.0781 C 503.332,15.0781 504.746,15.3125 505.801,15.5664 C 508.152,16.0352 508.75,18.6328 509.223,22.0312 C 509.805,26.9922 509.805,36.2891 509.805,47.5781 L 509.805,68.3203 C 509.805,86.6602 509.805,89.9414 509.57,93.7305 C 509.332,97.7539 508.398,99.5898 504.516,100.41 C 503.562,100.645 501.566,100.762 500.504,100.762 C 500.027,100.762 499.566,100.996 499.566,101.465 C 499.566,102.188 500.156,102.422 501.457,102.422 C 506.754,102.422 514.164,102.051 514.746,102.051 C 515.336,102.051 523.941,102.422 527.465,102.422 C 528.754,102.422 529.348,102.188 529.348,101.465 C 529.348,100.996 528.879,100.762 528.395,100.762 C 527.578,100.762 525.922,100.645 524.516,100.41 C 521.109,99.8438 520.172,97.8711 519.926,93.7305 C 519.691,89.9414 519.691,86.6602 519.691,68.3203 L 519.691,47.3438"
             style="fill:#231f20;fill-opacity:1;fill-rule:nonzero;stroke:none"
             id="path85" /><path
             d="M 579.488,68.3203 C 579.488,86.6602 579.488,89.9414 579.25,93.7305 C 579.016,97.7539 578.082,99.5898 574.188,100.41 C 573.246,100.645 571.25,100.762 570.188,100.762 C 569.719,100.762 569.25,100.996 569.25,101.465 C 569.25,102.188 569.84,102.422 571.125,102.422 C 576.426,102.422 583.848,102.051 584.43,102.051 C 585.25,102.051 608.691,102.051 611.391,102.188 C 613.629,102.305 615.508,102.539 616.445,102.773 C 617.035,102.891 617.5,103.359 618.098,103.359 C 618.457,103.359 618.57,102.891 618.57,102.305 C 618.57,101.465 617.98,100.059 617.629,96.7969 C 617.5,95.6055 617.266,90.4102 617.035,89.043 C 616.918,88.457 616.68,87.7344 616.215,87.7344 C 615.508,87.7344 615.273,88.3203 615.273,89.2578 C 615.273,90.0781 615.156,92.0703 614.566,93.4766 C 613.746,95.3906 612.559,96.7969 606.211,97.5 C 604.203,97.7539 591.379,97.8711 590.082,97.8711 C 589.613,97.8711 589.371,97.5 589.371,96.6797 L 589.371,64.1797 C 589.371,63.3398 589.496,62.9883 590.082,62.9883 C 591.609,62.9883 606.094,62.9883 608.793,63.2031 C 611.621,63.457 613.27,63.6914 614.32,64.8633 C 615.156,65.8398 615.625,66.4258 616.098,66.4258 C 616.445,66.4258 616.68,66.1914 616.68,65.4688 C 616.68,64.7656 616.098,62.7344 615.742,58.9062 C 615.508,56.543 615.273,52.1484 615.273,51.3477 C 615.273,50.4102 615.273,49.1406 614.449,49.1406 C 613.863,49.1406 613.629,49.6094 613.629,50.1953 C 613.629,51.3477 613.629,52.5 613.152,54.043 C 612.676,55.7031 611.621,57.7148 607.035,58.1836 C 603.852,58.5352 592.195,58.7695 590.191,58.7695 C 589.613,58.7695 589.371,58.4375 589.371,57.9492 L 589.371,47.5781 C 589.371,43.5547 589.262,29.9414 589.371,27.4609 C 589.727,19.3359 591.504,17.8125 603.027,17.8125 C 606.094,17.8125 611.266,17.8125 614.32,19.1211 C 617.383,20.4102 618.809,22.7344 619.629,27.5781 C 619.863,28.8867 620.098,29.3555 620.691,29.3555 C 621.387,29.3555 621.387,28.3984 621.387,27.5781 C 621.387,26.6211 620.461,18.6328 619.863,16.1523 C 619.043,13.0859 618.098,13.0859 613.508,13.0859 C 595.73,13.0859 587.848,13.7695 584.43,13.7695 C 583.848,13.7695 576.426,13.4375 572.898,13.4375 C 571.602,13.4375 571.012,13.6523 571.012,14.375 C 571.012,14.7266 571.25,15.0781 571.953,15.0781 C 573.008,15.0781 574.434,15.3125 575.484,15.5664 C 577.844,16.0352 578.418,18.6328 578.906,22.0312 C 579.488,26.9922 579.488,36.2891 579.488,47.5781 L 579.488,68.3203"
             style="fill:#231f20;fill-opacity:1;fill-rule:nonzero;stroke:none"
             id="path87" /><path
             d="M 699.426,70.1953 C 699.426,79.2773 699.426,91.2305 699.543,95.2539 C 699.543,96.5625 699.895,97.1484 700.969,97.6172 C 701.895,98.0859 706.266,98.457 708.613,98.457 C 722.617,98.457 736.035,96.7969 747.102,85.1172 C 751.934,80.0586 758.398,70.4102 758.398,55.4688 C 758.398,44.6289 755.102,33.3203 748.984,27.3438 C 742.043,20.4102 731.914,16.3867 720.969,16.3867 C 707.082,16.3867 702.488,18.8672 700.969,21.0938 C 700.02,22.4023 699.773,27.0898 699.656,30.0586 C 699.543,32.2461 699.426,43.0859 699.426,55.5859 L 699.426,70.1953 z M 689.535,47.5781 C 689.535,36.2891 689.535,26.9922 688.957,22.0312 C 688.484,18.6328 687.891,16.0352 685.539,15.5664 C 684.473,15.3125 683.066,15.0781 682.016,15.0781 C 681.309,15.0781 681.074,14.7266 681.074,14.375 C 681.074,13.6523 681.66,13.4375 682.949,13.4375 C 686.484,13.4375 693.906,13.7695 694.488,13.7695 C 695.664,13.7695 710.5,12.3828 720.625,12.3828 C 740.613,12.3828 751.223,20.6445 756.289,25.918 C 762.871,32.8516 768.996,44.2773 768.996,59.1211 C 768.996,73.1055 763.469,82.8711 757.566,89.043 C 743.562,103.496 722.031,102.422 710.383,102.422 C 703.32,102.422 695.906,102.051 694.488,102.051 C 693.906,102.051 686.484,102.422 681.191,102.422 C 679.887,102.422 679.309,102.188 679.309,101.465 C 679.309,100.996 679.773,100.762 680.234,100.762 C 681.309,100.762 683.312,100.645 684.25,100.41 C 688.125,99.5898 689.082,97.7539 689.312,93.7305 C 689.535,89.9414 689.535,86.6602 689.535,68.3203 L 689.535,47.5781"
             style="fill:#231f20;fill-opacity:1;fill-rule:nonzero;stroke:none"
             id="path89" /><path
             d="M 797.48,68.3203 C 797.48,86.6602 797.48,89.9414 797.246,93.7305 C 797.004,97.7539 796.074,99.5898 792.18,100.41 C 791.25,100.645 789.23,100.762 788.184,100.762 C 787.707,100.762 787.234,100.996 787.234,101.465 C 787.234,102.188 787.82,102.422 789.121,102.422 C 794.414,102.422 801.824,102.051 802.422,102.051 C 803.254,102.051 826.672,102.051 829.355,102.188 C 831.609,102.305 833.516,102.539 834.453,102.773 C 835.039,102.891 835.5,103.359 836.086,103.359 C 836.445,103.359 836.57,102.891 836.57,102.305 C 836.57,101.465 835.969,100.059 835.613,96.7969 C 835.5,95.6055 835.254,90.4102 835.039,89.043 C 834.922,88.457 834.688,87.7344 834.238,87.7344 C 833.516,87.7344 833.262,88.3203 833.262,89.2578 C 833.262,90.0781 833.164,92.0703 832.578,93.4766 C 831.73,95.3906 830.559,96.7969 824.219,97.5 C 822.207,97.7539 809.355,97.8711 808.074,97.8711 C 807.605,97.8711 807.383,97.5 807.383,96.6797 L 807.383,64.1797 C 807.383,63.3398 807.48,62.9883 808.074,62.9883 C 809.59,62.9883 824.082,62.9883 826.789,63.2031 C 829.609,63.457 831.262,63.6914 832.336,64.8633 C 833.164,65.8398 833.633,66.4258 834.102,66.4258 C 834.453,66.4258 834.688,66.1914 834.688,65.4688 C 834.688,64.7656 834.102,62.7344 833.75,58.9062 C 833.516,56.543 833.262,52.1484 833.262,51.3477 C 833.262,50.4102 833.262,49.1406 832.441,49.1406 C 831.855,49.1406 831.609,49.6094 831.609,50.1953 C 831.609,51.3477 831.609,52.5 831.145,54.043 C 830.676,55.7031 829.609,57.7148 825.039,58.1836 C 821.848,58.5352 810.176,58.7695 808.191,58.7695 C 807.605,58.7695 807.383,58.4375 807.383,57.9492 L 807.383,47.5781 C 807.383,43.5547 807.246,29.9414 807.383,27.4609 C 807.727,19.3359 809.453,17.8125 821.016,17.8125 C 824.082,17.8125 829.258,17.8125 832.336,19.1211 C 835.371,20.4102 836.797,22.7344 837.617,27.5781 C 837.832,28.8867 838.066,29.3555 838.652,29.3555 C 839.375,29.3555 839.375,28.3984 839.375,27.5781 C 839.375,26.6211 838.418,18.6328 837.832,16.1523 C 837.031,13.0859 836.086,13.0859 831.504,13.0859 C 813.73,13.0859 805.859,13.7695 802.422,13.7695 C 801.824,13.7695 794.414,13.4375 790.891,13.4375 C 789.59,13.4375 789.016,13.6523 789.016,14.375 C 789.016,14.7266 789.23,15.0781 789.941,15.0781 C 791.016,15.0781 792.422,15.3125 793.484,15.5664 C 795.84,16.0352 796.418,18.6328 796.887,22.0312 C 797.48,26.9922 797.48,36.2891 797.48,47.5781 L 797.48,68.3203"
             style="fill:#231f20;fill-opacity:1;fill-rule:nonzero;stroke:none"
             id="path91" /><path
             d="M 917.422,47.3438 C 917.422,30.0586 917.891,22.4805 920.02,20.4102 C 921.895,18.5156 924.941,17.6953 934.141,17.6953 C 940.371,17.6953 945.527,17.8125 948.379,21.2305 C 949.922,23.0664 951.094,26.0352 951.445,28.2812 C 951.562,29.2383 951.797,29.8242 952.488,29.8242 C 953.074,29.8242 953.203,29.3555 953.203,28.0469 C 953.203,26.7383 952.375,19.707 951.445,16.2695 C 950.645,13.5352 950.273,13.0859 944.023,13.0859 C 927.07,13.0859 919.309,13.7695 912.5,13.7695 C 911.426,13.7695 904.48,13.4375 900.957,13.4375 C 899.648,13.4375 899.055,13.6523 899.055,14.375 C 899.055,14.7266 899.297,15.0781 899.988,15.0781 C 901.055,15.0781 902.5,15.3125 903.535,15.5664 C 905.871,16.0352 906.465,18.6328 906.934,22.0312 C 907.539,26.9922 907.539,36.2891 907.539,47.5781 L 907.539,68.3203 C 907.539,86.6602 907.539,89.9414 907.285,93.7305 C 907.051,97.7539 906.113,99.5898 902.246,100.41 C 901.309,100.645 899.297,100.762 898.242,100.762 C 897.754,100.762 897.285,100.996 897.285,101.465 C 897.285,102.188 897.891,102.422 899.18,102.422 C 904.48,102.422 911.914,102.051 912.5,102.051 C 913.066,102.051 921.68,102.422 925.195,102.422 C 926.465,102.422 927.07,102.188 927.07,101.465 C 927.07,100.996 926.582,100.762 926.113,100.762 C 925.305,100.762 923.664,100.645 922.266,100.41 C 918.828,99.8438 917.891,97.8711 917.656,93.7305 C 917.422,89.9414 917.422,86.6602 917.422,68.3203 L 917.422,47.3438"
             style="fill:#231f20;fill-opacity:1;fill-rule:nonzero;stroke:none"
             id="path93" /><path
             d="M 986.27,52.3828 C 985.918,52.3828 985.684,52.6172 985.918,53.2227 L 996.27,85.0195 C 996.855,86.7969 997.461,86.7969 998.066,85.0195 L 1009.24,53.2227 C 1009.38,52.7344 1009.38,52.3828 1008.77,52.3828 L 986.27,52.3828 z M 969.824,26.4062 C 967.676,20.5273 965.312,16.0352 959.941,15.3125 C 958.965,15.1953 957.312,15.0781 956.484,15.0781 C 955.898,15.0781 955.41,14.8438 955.41,14.375 C 955.41,13.6523 956.133,13.4375 957.676,13.4375 C 963.203,13.4375 969.688,13.7695 970.996,13.7695 C 972.285,13.7695 977.324,13.4375 980.195,13.4375 C 981.25,13.4375 981.934,13.6523 981.934,14.375 C 981.934,14.8438 981.602,15.0781 980.781,15.0781 L 979.59,15.0781 C 977.559,15.0781 975.078,16.1523 975.078,18.5156 C 975.078,20.6445 975.664,23.418 976.738,26.4062 L 983.789,47.2461 C 984.023,47.8125 984.375,48.1641 984.961,48.1641 L 1010.31,48.1641 C 1010.9,48.1641 1011.11,47.9492 1011.37,47.4805 L 1022.29,18.5156 C 1022.99,16.6211 1022.29,15.5664 1021.58,15.3125 C 1021.11,15.1953 1020.78,14.9609 1020.78,14.4922 C 1020.78,13.7695 1022.03,13.7695 1024.3,13.6523 C 1032.4,13.4375 1041,13.4375 1042.77,13.4375 C 1044.06,13.4375 1045.14,13.6523 1045.14,14.375 C 1045.14,14.9609 1044.65,15.0781 1043.95,15.0781 C 1042.77,15.0781 1041,15.1953 1039.28,15.7812 C 1036.78,16.5039 1033.34,18.3984 1029.14,28.8867 C 1021.93,46.7578 1003.46,95.3906 1001.72,99.8438 C 1000.31,103.496 999.844,104.082 999.121,104.082 C 998.418,104.082 997.93,103.359 996.523,99.4922 L 969.824,26.4062"
             style="fill:#231f20;fill-opacity:1;fill-rule:nonzero;stroke:none"
             id="path95" /><path
             d="M 1055.14,68.3203 C 1055.14,86.6602 1055.14,89.9414 1054.9,93.7305 C 1054.65,97.7539 1053.73,99.5898 1049.86,100.41 C 1048.93,100.645 1046.91,100.762 1045.84,100.762 C 1045.35,100.762 1044.88,100.996 1044.88,101.465 C 1044.88,102.188 1045.49,102.422 1046.8,102.422 C 1052.07,102.422 1059.28,102.051 1060.31,102.051 C 1061.37,102.051 1068.46,102.422 1071.95,102.422 C 1073.26,102.422 1073.83,102.188 1073.83,101.465 C 1073.83,100.996 1073.4,100.762 1072.91,100.762 C 1072.07,100.762 1071.37,100.645 1069.96,100.41 C 1066.8,99.9609 1065.84,97.8711 1065.61,93.7305 C 1065.39,89.9414 1065.39,86.6602 1065.39,68.3203 L 1065.39,51.7969 C 1065.39,34.8438 1069.16,27.5781 1074.2,22.7344 C 1079.98,17.3242 1085.27,16.2695 1091.97,16.2695 C 1099.14,16.2695 1106.25,19.707 1110.45,24.7266 C 1115.88,31.4453 1117.29,41.4648 1117.29,53.5742 L 1117.29,68.3203 C 1117.29,86.6602 1117.29,89.9414 1117.07,93.7305 C 1116.86,97.7539 1115.88,99.5898 1111.97,100.41 C 1111.04,100.645 1109.02,100.762 1108.01,100.762 C 1107.56,100.762 1107.07,100.996 1107.07,101.465 C 1107.07,102.188 1107.66,102.422 1108.93,102.422 C 1114.22,102.422 1120.68,102.051 1121.41,102.051 C 1122.23,102.051 1127.77,102.422 1131.29,102.422 C 1132.58,102.422 1133.18,102.188 1133.18,101.465 C 1133.18,100.996 1132.71,100.762 1132.23,100.762 C 1131.41,100.762 1130.7,100.762 1129.26,100.41 C 1126.15,99.8438 1125.18,97.8711 1124.94,93.7305 C 1124.71,89.9414 1124.71,86.6602 1124.71,68.3203 L 1124.71,55.7031 C 1124.71,42.9492 1123.28,28.8867 1113.89,20.5273 C 1105.41,12.9492 1096.6,11.7969 1089.63,11.7969 C 1085.64,11.7969 1073.73,12.2656 1065.39,20.1758 C 1059.63,25.6836 1055.14,33.9062 1055.14,51.1133 L 1055.14,68.3203"
             style="fill:#231f20;fill-opacity:1;fill-rule:nonzero;stroke:none"
             id="path97" /><path
             d="M 1152.11,14.9609 C 1150.47,15.7812 1150.35,16.2695 1150.35,19.4531 C 1150.35,25.332 1150.82,30.0586 1150.96,31.9141 C 1151.07,33.1836 1151.31,33.7891 1151.89,33.7891 C 1152.6,33.7891 1152.71,33.4375 1152.71,32.5 C 1152.71,31.4453 1152.71,29.8242 1153.07,28.1641 C 1154.84,19.4531 1162.62,16.1523 1170.49,16.1523 C 1181.8,16.1523 1187.3,24.2578 1187.3,31.7969 C 1187.3,39.9414 1183.93,44.6289 1173.79,52.9688 L 1168.48,57.3633 C 1156.04,67.5977 1153.18,74.8828 1153.18,82.8711 C 1153.18,95.4883 1162.62,104.082 1177.54,104.082 C 1182.15,104.082 1185.57,103.613 1188.5,102.891 C 1190.72,102.422 1191.68,102.305 1192.62,102.305 C 1193.55,102.305 1193.83,102.051 1193.83,101.465 C 1193.83,100.879 1193.34,97.0312 1193.34,89.043 C 1193.34,87.1289 1193.11,86.3086 1192.5,86.3086 C 1191.8,86.3086 1191.68,86.9141 1191.56,87.8516 C 1191.45,89.2578 1190.72,92.4219 1190.02,93.7305 C 1189.32,95.0195 1186.15,99.9609 1175.35,99.9609 C 1167.19,99.9609 1160.82,94.9023 1160.82,86.3086 C 1160.82,79.6094 1164.14,75.6055 1175.23,66.543 L 1178.48,63.9258 C 1192.38,52.9688 1195.68,45.6836 1195.68,36.2891 C 1195.68,31.4453 1193.83,22.4805 1185.68,16.7383 C 1180.61,13.1836 1174.28,11.7969 1167.91,11.7969 C 1162.36,11.7969 1156.97,12.6172 1152.11,14.9609"
             style="fill:#231f20;fill-opacity:1;fill-rule:nonzero;stroke:none"
             id="path99" /><path
             d="M 1233.48,52.3828 C 1233.12,52.3828 1232.89,52.6172 1233.12,53.2227 L 1243.5,85.0195 C 1244.08,86.7969 1244.65,86.7969 1245.21,85.0195 L 1256.41,53.2227 C 1256.52,52.7344 1256.52,52.3828 1255.92,52.3828 L 1233.48,52.3828 z M 1216.97,26.4062 C 1214.88,20.5273 1212.52,16.0352 1207.07,15.3125 C 1206.13,15.1953 1204.51,15.0781 1203.71,15.0781 C 1203.11,15.0781 1202.64,14.8438 1202.64,14.375 C 1202.64,13.6523 1203.34,13.4375 1204.86,13.4375 C 1210.39,13.4375 1216.84,13.7695 1218.14,13.7695 C 1219.43,13.7695 1224.53,13.4375 1227.32,13.4375 C 1228.38,13.4375 1229.08,13.6523 1229.08,14.375 C 1229.08,14.8438 1228.73,15.0781 1227.93,15.0781 L 1226.72,15.0781 C 1224.75,15.0781 1222.3,16.1523 1222.3,18.5156 C 1222.3,20.6445 1222.89,23.418 1223.95,26.4062 L 1231,47.2461 C 1231.23,47.8125 1231.6,48.1641 1232.19,48.1641 L 1257.48,48.1641 C 1258.05,48.1641 1258.28,47.9492 1258.52,47.4805 L 1269.47,18.5156 C 1270.18,16.6211 1269.47,15.5664 1268.77,15.3125 C 1268.3,15.1953 1267.93,14.9609 1267.93,14.4922 C 1267.93,13.7695 1269.24,13.7695 1271.5,13.6523 C 1279.61,13.4375 1288.18,13.4375 1289.98,13.4375 C 1291.29,13.4375 1292.34,13.6523 1292.34,14.375 C 1292.34,14.9609 1291.86,15.0781 1291.15,15.0781 C 1289.98,15.0781 1288.18,15.1953 1286.43,15.7812 C 1283.95,16.5039 1280.55,18.3984 1276.29,28.8867 C 1269.12,46.7578 1250.64,95.3906 1248.87,99.8438 C 1247.46,103.496 1246.97,104.082 1246.27,104.082 C 1245.59,104.082 1245.12,103.359 1243.71,99.4922 L 1216.97,26.4062"
             style="fill:#231f20;fill-opacity:1;fill-rule:nonzero;stroke:none"
             id="path101" /><path
             d="M 1312.32,29.4727 C 1312.58,19.8047 1313.73,16.7383 1316.91,15.7812 C 1319.18,15.1953 1321.74,15.0781 1322.79,15.0781 C 1323.38,15.0781 1323.75,14.8438 1323.75,14.375 C 1323.75,13.6523 1323.03,13.4375 1321.64,13.4375 C 1314.9,13.4375 1310.23,13.7695 1309.16,13.7695 C 1308.09,13.7695 1303.14,13.4375 1297.85,13.4375 C 1296.66,13.4375 1295.96,13.5352 1295.96,14.375 C 1295.96,14.8438 1296.31,15.0781 1296.89,15.0781 C 1297.85,15.0781 1299.98,15.1953 1301.74,15.7812 C 1304.65,16.6211 1305.25,20.0586 1305.25,30.7422 L 1305.35,98.2227 C 1305.35,102.773 1305.72,104.082 1306.66,104.082 C 1307.62,104.082 1309.63,101.465 1310.82,100.293 C 1312.58,98.3398 1330.12,79.375 1348.22,59.9414 C 1359.9,47.4805 1372.68,33.0664 1376.48,29.2383 L 1375.18,89.043 C 1375.04,96.6797 1374.24,99.2578 1370.61,100.176 C 1368.48,100.645 1365.74,100.762 1364.8,100.762 C 1363.98,100.762 1363.87,101.113 1363.87,101.582 C 1363.87,102.305 1364.8,102.422 1366.23,102.422 C 1371.52,102.422 1377.19,102.051 1378.5,102.051 C 1379.79,102.051 1383.63,102.422 1388.5,102.422 C 1389.79,102.422 1390.61,102.305 1390.61,101.582 C 1390.61,101.113 1390.14,100.762 1389.32,100.762 C 1388.73,100.762 1387.91,100.762 1386.48,100.41 C 1382.58,99.5898 1382.13,97.0312 1382.13,89.9414 L 1381.89,20.9766 C 1381.89,13.1836 1381.64,12.6172 1380.84,12.6172 C 1379.92,12.6172 1378.5,13.9062 1372.25,20.1758 C 1370.94,21.3477 1353.98,38.6523 1341.5,52.0312 C 1327.87,66.7578 1314.55,81.582 1310.82,85.8398 L 1312.32,29.4727"
             style="fill:#231f20;fill-opacity:1;fill-rule:nonzero;stroke:none"
             id="path103" /><path
             d="M 1423.77,29.4727 C 1424.02,19.8047 1425.21,16.7383 1428.4,15.7812 C 1430.62,15.1953 1433.2,15.0781 1434.28,15.0781 C 1434.86,15.0781 1435.21,14.8438 1435.21,14.375 C 1435.21,13.6523 1434.51,13.4375 1433.07,13.4375 C 1426.39,13.4375 1421.66,13.7695 1420.61,13.7695 C 1419.55,13.7695 1414.61,13.4375 1409.32,13.4375 C 1408.14,13.4375 1407.44,13.5352 1407.44,14.375 C 1407.44,14.8438 1407.81,15.0781 1408.4,15.0781 C 1409.32,15.0781 1411.43,15.1953 1413.18,15.7812 C 1416.13,16.6211 1416.74,20.0586 1416.74,30.7422 L 1416.86,98.2227 C 1416.86,102.773 1417.21,104.082 1418.14,104.082 C 1419.08,104.082 1421.09,101.465 1422.25,100.293 C 1424.02,98.3398 1441.56,79.375 1459.69,59.9414 C 1471.33,47.4805 1484.18,33.0664 1487.95,29.2383 L 1486.68,89.043 C 1486.54,96.6797 1485.72,99.2578 1482.07,100.176 C 1479.92,100.645 1477.23,100.762 1476.31,100.762 C 1475.49,100.762 1475.37,101.113 1475.37,101.582 C 1475.37,102.305 1476.31,102.422 1477.71,102.422 C 1483.01,102.422 1488.65,102.051 1489.94,102.051 C 1491.23,102.051 1495.12,102.422 1499.94,102.422 C 1501.23,102.422 1502.05,102.305 1502.05,101.582 C 1502.05,101.113 1501.6,100.762 1500.74,100.762 C 1500.16,100.762 1499.34,100.762 1497.95,100.41 C 1494.08,99.5898 1493.59,97.0312 1493.59,89.9414 L 1493.36,20.9766 C 1493.36,13.1836 1493.11,12.6172 1492.3,12.6172 C 1491.35,12.6172 1489.94,13.9062 1483.73,20.1758 C 1482.4,21.3477 1465.49,38.6523 1452.97,52.0312 C 1439.34,66.7578 1426.04,81.582 1422.25,85.8398 L 1423.77,29.4727"
             style="fill:#231f20;fill-opacity:1;fill-rule:nonzero;stroke:none"
             id="path105" /><path
             d="M 1532.09,68.3203 C 1532.09,86.6602 1532.09,89.9414 1531.86,93.7305 C 1531.6,97.7539 1530.66,99.5898 1526.8,100.41 C 1525.86,100.645 1523.87,100.762 1522.79,100.762 C 1522.3,100.762 1521.86,100.996 1521.86,101.465 C 1521.86,102.188 1522.44,102.422 1523.73,102.422 C 1529,102.422 1536.46,102.051 1537.03,102.051 C 1537.85,102.051 1561.29,102.051 1564,102.188 C 1566.21,102.305 1568.07,102.539 1569.04,102.773 C 1569.63,102.891 1570.1,103.359 1570.7,103.359 C 1571.05,103.359 1571.17,102.891 1571.17,102.305 C 1571.17,101.465 1570.59,100.059 1570.21,96.7969 C 1570.1,95.6055 1569.86,90.4102 1569.63,89.043 C 1569.51,88.457 1569.28,87.7344 1568.79,87.7344 C 1568.07,87.7344 1567.85,88.3203 1567.85,89.2578 C 1567.85,90.0781 1567.71,92.0703 1567.17,93.4766 C 1566.33,95.3906 1565.16,96.7969 1558.77,97.5 C 1556.8,97.7539 1543.98,97.8711 1542.7,97.8711 C 1542.21,97.8711 1541.97,97.5 1541.97,96.6797 L 1541.97,64.1797 C 1541.97,63.3398 1542.11,62.9883 1542.7,62.9883 C 1544.22,62.9883 1558.67,62.9883 1561.41,63.2031 C 1564.24,63.457 1565.88,63.6914 1566.93,64.8633 C 1567.71,65.8398 1568.2,66.4258 1568.67,66.4258 C 1569.04,66.4258 1569.28,66.1914 1569.28,65.4688 C 1569.28,64.7656 1568.67,62.7344 1568.32,58.9062 C 1568.07,56.543 1567.85,52.1484 1567.85,51.3477 C 1567.85,50.4102 1567.85,49.1406 1567.05,49.1406 C 1566.45,49.1406 1566.21,49.6094 1566.21,50.1953 C 1566.21,51.3477 1566.21,52.5 1565.74,54.043 C 1565.29,55.7031 1564.24,57.7148 1559.63,58.1836 C 1556.43,58.5352 1544.8,58.7695 1542.81,58.7695 C 1542.21,58.7695 1541.97,58.4375 1541.97,57.9492 L 1541.97,47.5781 C 1541.97,43.5547 1541.86,29.9414 1541.97,27.4609 C 1542.32,19.3359 1544.12,17.8125 1555.64,17.8125 C 1558.67,17.8125 1563.89,17.8125 1566.93,19.1211 C 1569.98,20.4102 1571.39,22.7344 1572.25,27.5781 C 1572.46,28.8867 1572.7,29.3555 1573.3,29.3555 C 1574,29.3555 1574,28.3984 1574,27.5781 C 1574,26.6211 1573.05,18.6328 1572.46,16.1523 C 1571.64,13.0859 1570.7,13.0859 1566.09,13.0859 C 1548.3,13.0859 1540.43,13.7695 1537.03,13.7695 C 1536.46,13.7695 1529,13.4375 1525.53,13.4375 C 1524.2,13.4375 1523.63,13.6523 1523.63,14.375 C 1523.63,14.7266 1523.87,15.0781 1524.55,15.0781 C 1525.61,15.0781 1527.03,15.3125 1528.09,15.5664 C 1530.43,16.0352 1531.02,18.6328 1531.48,22.0312 C 1532.09,26.9922 1532.09,36.2891 1532.09,47.5781 L 1532.09,68.3203"
             style="fill:#231f20;fill-opacity:1;fill-rule:nonzero;stroke:none"
             id="path107" /></g></g></g></g></svg>